<mxfile host="app.diagrams.net" agent="Mozilla/5.0 (Windows NT 10.0; Win64; x64) AppleWebKit/537.36 (KHTML, like Gecko) Chrome/137.0.0.0 Safari/537.36" version="27.1.6">
  <diagram name="Page-1" id="3x19Th-BcRJQB09NFwTe">
    <mxGraphModel grid="1" page="1" gridSize="10" guides="1" tooltips="1" connect="1" arrows="1" fold="1" pageScale="1" pageWidth="827" pageHeight="1169" math="0" shadow="0">
      <root>
        <mxCell id="0" />
        <mxCell id="1" parent="0" />
        <mxCell id="F7Z9_WIEVjK_hTuTF3Z4-3" style="edgeStyle=orthogonalEdgeStyle;rounded=0;orthogonalLoop=1;jettySize=auto;html=1;" edge="1" parent="1">
          <mxGeometry relative="1" as="geometry">
            <mxPoint x="580" y="240" as="sourcePoint" />
            <mxPoint x="580" y="260" as="targetPoint" />
          </mxGeometry>
        </mxCell>
        <mxCell id="F7Z9_WIEVjK_hTuTF3Z4-10" value="" style="edgeStyle=orthogonalEdgeStyle;rounded=0;orthogonalLoop=1;jettySize=auto;html=1;" edge="1" parent="1" source="F7Z9_WIEVjK_hTuTF3Z4-6" target="F7Z9_WIEVjK_hTuTF3Z4-9">
          <mxGeometry relative="1" as="geometry" />
        </mxCell>
        <mxCell id="F7Z9_WIEVjK_hTuTF3Z4-18" value="" style="edgeStyle=orthogonalEdgeStyle;rounded=0;orthogonalLoop=1;jettySize=auto;html=1;" edge="1" parent="1" source="F7Z9_WIEVjK_hTuTF3Z4-6" target="F7Z9_WIEVjK_hTuTF3Z4-17">
          <mxGeometry relative="1" as="geometry" />
        </mxCell>
        <mxCell id="F7Z9_WIEVjK_hTuTF3Z4-20" value="" style="edgeStyle=orthogonalEdgeStyle;rounded=0;orthogonalLoop=1;jettySize=auto;html=1;" edge="1" parent="1" source="F7Z9_WIEVjK_hTuTF3Z4-6" target="F7Z9_WIEVjK_hTuTF3Z4-19">
          <mxGeometry relative="1" as="geometry" />
        </mxCell>
        <mxCell id="F7Z9_WIEVjK_hTuTF3Z4-22" value="" style="edgeStyle=orthogonalEdgeStyle;rounded=0;orthogonalLoop=1;jettySize=auto;html=1;" edge="1" parent="1" source="F7Z9_WIEVjK_hTuTF3Z4-6" target="F7Z9_WIEVjK_hTuTF3Z4-21">
          <mxGeometry relative="1" as="geometry" />
        </mxCell>
        <mxCell id="F7Z9_WIEVjK_hTuTF3Z4-48" style="edgeStyle=orthogonalEdgeStyle;rounded=0;orthogonalLoop=1;jettySize=auto;html=1;exitX=0;exitY=1;exitDx=0;exitDy=0;" edge="1" parent="1" source="F7Z9_WIEVjK_hTuTF3Z4-6">
          <mxGeometry relative="1" as="geometry">
            <mxPoint x="70" y="480" as="targetPoint" />
          </mxGeometry>
        </mxCell>
        <mxCell id="F7Z9_WIEVjK_hTuTF3Z4-64" style="edgeStyle=orthogonalEdgeStyle;rounded=0;orthogonalLoop=1;jettySize=auto;html=1;exitX=1;exitY=1;exitDx=0;exitDy=0;entryX=0.5;entryY=0;entryDx=0;entryDy=0;" edge="1" parent="1" source="F7Z9_WIEVjK_hTuTF3Z4-6" target="F7Z9_WIEVjK_hTuTF3Z4-29">
          <mxGeometry relative="1" as="geometry" />
        </mxCell>
        <mxCell id="F7Z9_WIEVjK_hTuTF3Z4-6" value="&lt;b&gt;&lt;font style=&quot;font-size: 24px;&quot;&gt;Airbnb Clone-Backend Features&lt;/font&gt;&lt;/b&gt;" style="rounded=0;whiteSpace=wrap;html=1;" vertex="1" parent="1">
          <mxGeometry x="240" y="330" width="270" height="70" as="geometry" />
        </mxCell>
        <mxCell id="F7Z9_WIEVjK_hTuTF3Z4-12" value="" style="edgeStyle=orthogonalEdgeStyle;rounded=0;orthogonalLoop=1;jettySize=auto;html=1;" edge="1" parent="1" source="F7Z9_WIEVjK_hTuTF3Z4-9" target="F7Z9_WIEVjK_hTuTF3Z4-11">
          <mxGeometry relative="1" as="geometry">
            <Array as="points">
              <mxPoint x="280" y="220" />
              <mxPoint x="280" y="180" />
              <mxPoint x="180" y="180" />
            </Array>
          </mxGeometry>
        </mxCell>
        <mxCell id="F7Z9_WIEVjK_hTuTF3Z4-14" value="" style="edgeStyle=orthogonalEdgeStyle;rounded=0;orthogonalLoop=1;jettySize=auto;html=1;curved=1;" edge="1" parent="1" source="F7Z9_WIEVjK_hTuTF3Z4-9" target="F7Z9_WIEVjK_hTuTF3Z4-13">
          <mxGeometry relative="1" as="geometry" />
        </mxCell>
        <mxCell id="F7Z9_WIEVjK_hTuTF3Z4-16" value="" style="edgeStyle=orthogonalEdgeStyle;rounded=0;orthogonalLoop=1;jettySize=auto;html=1;" edge="1" parent="1" source="F7Z9_WIEVjK_hTuTF3Z4-9" target="F7Z9_WIEVjK_hTuTF3Z4-15">
          <mxGeometry relative="1" as="geometry" />
        </mxCell>
        <mxCell id="F7Z9_WIEVjK_hTuTF3Z4-30" style="edgeStyle=orthogonalEdgeStyle;rounded=0;orthogonalLoop=1;jettySize=auto;html=1;exitX=1;exitY=0;exitDx=0;exitDy=0;" edge="1" parent="1" source="F7Z9_WIEVjK_hTuTF3Z4-9">
          <mxGeometry relative="1" as="geometry">
            <mxPoint x="510" y="120" as="targetPoint" />
          </mxGeometry>
        </mxCell>
        <mxCell id="F7Z9_WIEVjK_hTuTF3Z4-9" value="&lt;b&gt;&lt;font style=&quot;font-size: 18px;&quot;&gt;User Management&lt;/font&gt;&lt;/b&gt;" style="whiteSpace=wrap;html=1;rounded=0;" vertex="1" parent="1">
          <mxGeometry x="320" y="190" width="120" height="60" as="geometry" />
        </mxCell>
        <mxCell id="F7Z9_WIEVjK_hTuTF3Z4-11" value="&lt;b&gt;Profile management&amp;nbsp;&lt;/b&gt;" style="rounded=0;whiteSpace=wrap;html=1;" vertex="1" parent="1">
          <mxGeometry x="120" y="150" width="120" height="60" as="geometry" />
        </mxCell>
        <mxCell id="F7Z9_WIEVjK_hTuTF3Z4-13" value="&lt;b&gt;&lt;font style=&quot;font-size: 14px;&quot;&gt;User Registration&lt;/font&gt;&lt;/b&gt;" style="whiteSpace=wrap;html=1;rounded=0;fillColor=default;" vertex="1" parent="1">
          <mxGeometry x="320" y="70" width="120" height="50" as="geometry" />
        </mxCell>
        <mxCell id="F7Z9_WIEVjK_hTuTF3Z4-15" value="&lt;b&gt;Authorization&lt;/b&gt;" style="whiteSpace=wrap;html=1;rounded=0;" vertex="1" parent="1">
          <mxGeometry x="520" y="190" width="120" height="60" as="geometry" />
        </mxCell>
        <mxCell id="F7Z9_WIEVjK_hTuTF3Z4-56" value="" style="edgeStyle=orthogonalEdgeStyle;rounded=0;orthogonalLoop=1;jettySize=auto;html=1;" edge="1" parent="1" source="F7Z9_WIEVjK_hTuTF3Z4-17" target="F7Z9_WIEVjK_hTuTF3Z4-55">
          <mxGeometry relative="1" as="geometry" />
        </mxCell>
        <mxCell id="F7Z9_WIEVjK_hTuTF3Z4-58" value="" style="edgeStyle=orthogonalEdgeStyle;rounded=0;orthogonalLoop=1;jettySize=auto;html=1;" edge="1" parent="1" source="F7Z9_WIEVjK_hTuTF3Z4-17" target="F7Z9_WIEVjK_hTuTF3Z4-57">
          <mxGeometry relative="1" as="geometry" />
        </mxCell>
        <mxCell id="F7Z9_WIEVjK_hTuTF3Z4-62" style="edgeStyle=orthogonalEdgeStyle;rounded=0;orthogonalLoop=1;jettySize=auto;html=1;exitX=1;exitY=1;exitDx=0;exitDy=0;" edge="1" parent="1" source="F7Z9_WIEVjK_hTuTF3Z4-17">
          <mxGeometry relative="1" as="geometry">
            <mxPoint x="960" y="480" as="targetPoint" />
          </mxGeometry>
        </mxCell>
        <mxCell id="F7Z9_WIEVjK_hTuTF3Z4-17" value="&lt;b&gt;&lt;font style=&quot;font-size: 14px;&quot;&gt;Payment Integration&lt;/font&gt;&lt;/b&gt;" style="whiteSpace=wrap;html=1;rounded=0;" vertex="1" parent="1">
          <mxGeometry x="655" y="330" width="120" height="60" as="geometry" />
        </mxCell>
        <mxCell id="F7Z9_WIEVjK_hTuTF3Z4-33" value="" style="edgeStyle=orthogonalEdgeStyle;rounded=0;orthogonalLoop=1;jettySize=auto;html=1;" edge="1" parent="1" source="F7Z9_WIEVjK_hTuTF3Z4-19" target="F7Z9_WIEVjK_hTuTF3Z4-32">
          <mxGeometry relative="1" as="geometry" />
        </mxCell>
        <mxCell id="F7Z9_WIEVjK_hTuTF3Z4-34" value="" style="edgeStyle=orthogonalEdgeStyle;rounded=0;orthogonalLoop=1;jettySize=auto;html=1;" edge="1" parent="1" source="F7Z9_WIEVjK_hTuTF3Z4-19" target="F7Z9_WIEVjK_hTuTF3Z4-27">
          <mxGeometry relative="1" as="geometry" />
        </mxCell>
        <mxCell id="F7Z9_WIEVjK_hTuTF3Z4-36" value="" style="edgeStyle=orthogonalEdgeStyle;rounded=0;orthogonalLoop=1;jettySize=auto;html=1;" edge="1" parent="1" source="F7Z9_WIEVjK_hTuTF3Z4-19" target="F7Z9_WIEVjK_hTuTF3Z4-35">
          <mxGeometry relative="1" as="geometry" />
        </mxCell>
        <mxCell id="F7Z9_WIEVjK_hTuTF3Z4-19" value="&lt;b&gt;&lt;font style=&quot;font-size: 14px;&quot;&gt;Property Listing management&lt;/font&gt;&lt;/b&gt;" style="whiteSpace=wrap;html=1;rounded=0;" vertex="1" parent="1">
          <mxGeometry x="325" y="470" width="120" height="60" as="geometry" />
        </mxCell>
        <mxCell id="F7Z9_WIEVjK_hTuTF3Z4-41" value="" style="edgeStyle=orthogonalEdgeStyle;rounded=0;orthogonalLoop=1;jettySize=auto;html=1;" edge="1" parent="1" source="F7Z9_WIEVjK_hTuTF3Z4-21" target="F7Z9_WIEVjK_hTuTF3Z4-40">
          <mxGeometry relative="1" as="geometry" />
        </mxCell>
        <mxCell id="F7Z9_WIEVjK_hTuTF3Z4-43" value="" style="edgeStyle=orthogonalEdgeStyle;rounded=0;orthogonalLoop=1;jettySize=auto;html=1;" edge="1" parent="1" source="F7Z9_WIEVjK_hTuTF3Z4-21" target="F7Z9_WIEVjK_hTuTF3Z4-42">
          <mxGeometry relative="1" as="geometry" />
        </mxCell>
        <mxCell id="F7Z9_WIEVjK_hTuTF3Z4-44" style="edgeStyle=orthogonalEdgeStyle;rounded=0;orthogonalLoop=1;jettySize=auto;html=1;exitX=0;exitY=1;exitDx=0;exitDy=0;" edge="1" parent="1" source="F7Z9_WIEVjK_hTuTF3Z4-21">
          <mxGeometry relative="1" as="geometry">
            <mxPoint x="-110" y="450" as="targetPoint" />
          </mxGeometry>
        </mxCell>
        <mxCell id="F7Z9_WIEVjK_hTuTF3Z4-21" value="&lt;b&gt;&lt;font style=&quot;font-size: 14px;&quot;&gt;Search and Filtering&lt;/font&gt;&lt;/b&gt;" style="whiteSpace=wrap;html=1;rounded=0;" vertex="1" parent="1">
          <mxGeometry x="-5" y="330" width="120" height="60" as="geometry" />
        </mxCell>
        <mxCell id="F7Z9_WIEVjK_hTuTF3Z4-27" value="&lt;b&gt;Create Listing&lt;/b&gt;" style="rounded=0;whiteSpace=wrap;html=1;" vertex="1" parent="1">
          <mxGeometry x="210" y="470" width="97" height="60" as="geometry" />
        </mxCell>
        <mxCell id="F7Z9_WIEVjK_hTuTF3Z4-66" value="" style="edgeStyle=orthogonalEdgeStyle;rounded=0;orthogonalLoop=1;jettySize=auto;html=1;" edge="1" parent="1" source="F7Z9_WIEVjK_hTuTF3Z4-29" target="F7Z9_WIEVjK_hTuTF3Z4-65">
          <mxGeometry relative="1" as="geometry" />
        </mxCell>
        <mxCell id="F7Z9_WIEVjK_hTuTF3Z4-68" value="" style="edgeStyle=orthogonalEdgeStyle;rounded=0;orthogonalLoop=1;jettySize=auto;html=1;" edge="1" parent="1" source="F7Z9_WIEVjK_hTuTF3Z4-29" target="F7Z9_WIEVjK_hTuTF3Z4-67">
          <mxGeometry relative="1" as="geometry" />
        </mxCell>
        <mxCell id="F7Z9_WIEVjK_hTuTF3Z4-69" style="edgeStyle=orthogonalEdgeStyle;rounded=0;orthogonalLoop=1;jettySize=auto;html=1;exitX=0;exitY=1;exitDx=0;exitDy=0;" edge="1" parent="1">
          <mxGeometry relative="1" as="geometry">
            <mxPoint x="580" y="650" as="targetPoint" />
            <mxPoint x="710" y="550" as="sourcePoint" />
          </mxGeometry>
        </mxCell>
        <mxCell id="F7Z9_WIEVjK_hTuTF3Z4-29" value="&lt;b&gt;&lt;font style=&quot;font-size: 14px;&quot;&gt;Review and Rating System&lt;/font&gt;&lt;/b&gt;" style="rounded=0;whiteSpace=wrap;html=1;" vertex="1" parent="1">
          <mxGeometry x="650" y="510" width="120" height="60" as="geometry" />
        </mxCell>
        <mxCell id="F7Z9_WIEVjK_hTuTF3Z4-31" value="&lt;b&gt;Login and Authentication&lt;/b&gt;" style="rounded=0;whiteSpace=wrap;html=1;" vertex="1" parent="1">
          <mxGeometry x="510" y="70" width="120" height="50" as="geometry" />
        </mxCell>
        <mxCell id="F7Z9_WIEVjK_hTuTF3Z4-32" value="&lt;b&gt;Manage listing&lt;/b&gt;" style="whiteSpace=wrap;html=1;rounded=0;" vertex="1" parent="1">
          <mxGeometry x="470" y="470" width="89" height="60" as="geometry" />
        </mxCell>
        <mxCell id="F7Z9_WIEVjK_hTuTF3Z4-35" value="&lt;b&gt;Image Handling&lt;/b&gt;" style="whiteSpace=wrap;html=1;rounded=0;" vertex="1" parent="1">
          <mxGeometry x="325" y="561" width="120" height="47" as="geometry" />
        </mxCell>
        <mxCell id="F7Z9_WIEVjK_hTuTF3Z4-50" value="" style="edgeStyle=orthogonalEdgeStyle;rounded=0;orthogonalLoop=1;jettySize=auto;html=1;" edge="1" parent="1" source="F7Z9_WIEVjK_hTuTF3Z4-37" target="F7Z9_WIEVjK_hTuTF3Z4-49">
          <mxGeometry relative="1" as="geometry" />
        </mxCell>
        <mxCell id="F7Z9_WIEVjK_hTuTF3Z4-51" style="edgeStyle=orthogonalEdgeStyle;rounded=0;orthogonalLoop=1;jettySize=auto;html=1;exitX=0;exitY=0.5;exitDx=0;exitDy=0;" edge="1" parent="1" source="F7Z9_WIEVjK_hTuTF3Z4-37">
          <mxGeometry relative="1" as="geometry">
            <mxPoint x="-20" y="520" as="targetPoint" />
          </mxGeometry>
        </mxCell>
        <mxCell id="F7Z9_WIEVjK_hTuTF3Z4-53" style="edgeStyle=orthogonalEdgeStyle;rounded=0;orthogonalLoop=1;jettySize=auto;html=1;exitX=1;exitY=1;exitDx=0;exitDy=0;" edge="1" parent="1" source="F7Z9_WIEVjK_hTuTF3Z4-37">
          <mxGeometry relative="1" as="geometry">
            <mxPoint x="210" y="600" as="targetPoint" />
          </mxGeometry>
        </mxCell>
        <mxCell id="F7Z9_WIEVjK_hTuTF3Z4-37" value="&lt;b&gt;&lt;font style=&quot;font-size: 14px;&quot;&gt;Booking Management System&lt;/font&gt;&lt;/b&gt;" style="rounded=0;whiteSpace=wrap;html=1;" vertex="1" parent="1">
          <mxGeometry x="10" y="490" width="120" height="60" as="geometry" />
        </mxCell>
        <mxCell id="F7Z9_WIEVjK_hTuTF3Z4-40" value="&lt;b&gt;Advance Filtering&lt;/b&gt;" style="whiteSpace=wrap;html=1;rounded=0;" vertex="1" parent="1">
          <mxGeometry x="-205" y="330" width="120" height="60" as="geometry" />
        </mxCell>
        <mxCell id="F7Z9_WIEVjK_hTuTF3Z4-42" value="&lt;b&gt;&lt;font style=&quot;font-size: 13px;&quot;&gt;Core search&lt;/font&gt;&lt;/b&gt;" style="whiteSpace=wrap;html=1;rounded=0;" vertex="1" parent="1">
          <mxGeometry x="-5" y="240" width="120" height="50" as="geometry" />
        </mxCell>
        <mxCell id="F7Z9_WIEVjK_hTuTF3Z4-45" value="&lt;b&gt;Result Handling&lt;/b&gt;" style="rounded=0;whiteSpace=wrap;html=1;" vertex="1" parent="1">
          <mxGeometry x="-205" y="450" width="120" height="60" as="geometry" />
        </mxCell>
        <mxCell id="F7Z9_WIEVjK_hTuTF3Z4-49" value="&lt;b&gt;Bookings lifecycle Management&lt;/b&gt;" style="rounded=0;whiteSpace=wrap;html=1;" vertex="1" parent="1">
          <mxGeometry x="-5" y="630" width="120" height="60" as="geometry" />
        </mxCell>
        <mxCell id="F7Z9_WIEVjK_hTuTF3Z4-52" value="&lt;b&gt;&lt;font style=&quot;font-size: 12px;&quot;&gt;Create Bookings&lt;/font&gt;&lt;/b&gt;" style="rounded=0;whiteSpace=wrap;html=1;" vertex="1" parent="1">
          <mxGeometry x="-139" y="510" width="120" height="60" as="geometry" />
        </mxCell>
        <mxCell id="F7Z9_WIEVjK_hTuTF3Z4-54" value="&lt;b&gt;Cancellation Logic&lt;/b&gt;" style="rounded=0;whiteSpace=wrap;html=1;" vertex="1" parent="1">
          <mxGeometry x="150" y="600" width="120" height="60" as="geometry" />
        </mxCell>
        <mxCell id="F7Z9_WIEVjK_hTuTF3Z4-55" value="&lt;b&gt;Payment Processing&lt;/b&gt;" style="whiteSpace=wrap;html=1;rounded=0;" vertex="1" parent="1">
          <mxGeometry x="655" y="235" width="120" height="60" as="geometry" />
        </mxCell>
        <mxCell id="F7Z9_WIEVjK_hTuTF3Z4-57" value="&lt;b&gt;Payouts&lt;/b&gt;" style="whiteSpace=wrap;html=1;rounded=0;" vertex="1" parent="1">
          <mxGeometry x="855" y="330" width="120" height="60" as="geometry" />
        </mxCell>
        <mxCell id="F7Z9_WIEVjK_hTuTF3Z4-63" value="&lt;b&gt;Currency support&lt;/b&gt;" style="rounded=0;whiteSpace=wrap;html=1;" vertex="1" parent="1">
          <mxGeometry x="910" y="480" width="120" height="60" as="geometry" />
        </mxCell>
        <mxCell id="F7Z9_WIEVjK_hTuTF3Z4-65" value="&lt;b&gt;Host Responses&lt;/b&gt;" style="whiteSpace=wrap;html=1;rounded=0;" vertex="1" parent="1">
          <mxGeometry x="840" y="640" width="90" height="60" as="geometry" />
        </mxCell>
        <mxCell id="F7Z9_WIEVjK_hTuTF3Z4-67" value="&lt;b&gt;Review Validation&lt;/b&gt;" style="whiteSpace=wrap;html=1;rounded=0;" vertex="1" parent="1">
          <mxGeometry x="670" y="640" width="120" height="60" as="geometry" />
        </mxCell>
        <mxCell id="F7Z9_WIEVjK_hTuTF3Z4-70" value="&lt;b&gt;Create Reviews&lt;/b&gt;" style="whiteSpace=wrap;html=1;rounded=0;" vertex="1" parent="1">
          <mxGeometry x="520" y="650" width="120" height="60" as="geometry" />
        </mxCell>
      </root>
    </mxGraphModel>
  </diagram>
</mxfile>
